PathFileType	4	(X/Y/Z)	D:\TRACE\v60_Jaco2_6-2-23\JustBodyDRS_Motion1_3-v60.trc
DataRate	CameraRate	NumFrames	NumMarkers	Units	OrigDataRate	OrigDataStartFrame	OrigNumFrames
100.00	100.00	      42	9	mm	100.00	1	      6892
Frame#	Time	front left toe			Front right toe			aft left toe			aft right toe			Arm			FL body			FR body			AL Body			AR Body			
		X1	Y1	Z1	X2	Y2	Z2	X3	Y3	Z3	X4	Y4	Z4	X5	Y5	Z5	X6	Y6	Z6	X7	Y7	Z7	X8	Y8	Z8	X9	Y9	Z9	

1	0.000	-112.19060	20.10659	-202.55469	307.27261	18.17884	-203.10175	-106.19296	17.55127	436.25696	288.48691	18.07510	406.45560	-7.93487	1208.11902	-348.07889	18.22350	576.11951	-337.89822	177.93629	576.04718	-339.80377	28.52238	582.59833	608.78540	186.11383	576.21661	607.23193	
2	0.010	-112.19356	20.11018	-202.58191	307.30841	18.18120	-203.10437	-106.22548	17.57042	436.25778	288.50699	18.03059	406.47437	-7.93905	1208.11938	-348.07288	18.23245	576.08490	-337.91711	177.98578	576.07764	-339.76483	28.50048	582.58038	608.78992	186.09695	576.21820	607.22333	
3	0.020	-112.13597	20.07435	-202.63295	307.31897	18.21596	-203.10997	-106.18847	17.54882	436.28458	288.50781	18.07111	406.48978	-7.91600	1208.13391	-348.05948	18.19240	576.12201	-337.91556	178.07123	576.08148	-339.73578	28.53941	582.60162	608.80872	186.09956	576.22516	607.21191	
4	0.030	-112.17344	20.10986	-202.60870	307.29346	18.20571	-203.08505	-106.18168	17.52162	436.24521	288.49478	18.06637	406.45828	-7.92427	1208.10876	-348.06107	18.23577	576.07684	-337.91290	178.01639	576.08600	-339.76608	28.53288	582.57318	608.77826	186.12413	576.22241	607.21313	
5	0.040	-112.22130	20.09755	-202.57896	307.31393	18.20334	-203.09109	-106.19289	17.52236	436.26733	288.46579	18.03205	406.47620	-7.91499	1208.12280	-348.09537	18.26118	576.11176	-337.88474	178.02800	576.02216	-339.75854	28.47338	582.57648	608.80304	186.06821	576.23431	607.23291	
6	0.050	-112.14314	20.11713	-202.58459	307.33163	18.19136	-203.13464	-106.21625	17.53468	436.25806	288.59958	18.11867	406.51151	-7.91863	1208.10889	-348.07654	18.24346	576.06451	-337.89697	178.08272	576.07965	-339.71884	28.52789	582.56439	608.79944	186.11913	576.19757	607.20221	
7	0.060	-112.18285	20.10903	-202.58391	307.28461	18.18026	-203.10814	-106.18420	17.50162	436.27063	288.49011	18.06385	406.47925	-7.93400	1208.10974	-348.04279	18.28121	576.07074	-337.88596	177.99908	576.06110	-339.75272	28.49623	582.56964	608.78363	186.07510	576.22467	607.21637	
8	0.070	-112.19688	20.12060	-202.58022	307.30777	18.18605	-203.09659	-106.22994	17.55375	436.25665	288.50485	18.01422	406.44312	-7.91339	1208.09058	-348.11496	18.27301	576.06665	-337.90225	178.00969	576.09814	-339.74033	28.49592	582.57544	608.80414	186.08788	576.20306	607.23578	
9	0.080	-112.28306	20.14164	-202.57845	307.29639	18.17260	-203.10905	-106.19479	17.52311	436.25375	288.52231	18.07272	406.51672	-7.93124	1208.11768	-348.06540	18.24229	576.11371	-337.89874	178.07684	576.08124	-339.72635	28.50239	582.56799	608.80737	186.08598	576.22894	607.22400	
10	0.090	-112.19106	20.10476	-202.60721	307.28891	18.19246	-203.11664	-106.20279	17.51918	436.26016	288.51208	18.08542	406.47784	-8.18485	1207.95374	-348.43933	18.24928	576.14075	-337.91333	177.97984	576.08008	-339.80325	28.54589	582.60419	608.80377	186.10916	576.24847	607.21552	
11	0.100	-112.16917	20.09516	-202.58173	307.30569	18.19819	-203.10204	-106.18508	17.52030	436.27820	288.54874	18.13704	406.46082	-7.92531	1208.10901	-348.07523	18.21250	576.12360	-337.92456	178.01064	576.01349	-339.77560	28.47923	582.61224	608.80396	186.08818	576.26202	607.23932	
12	0.110	-112.13812	20.10994	-202.58607	307.33401	18.20396	-203.13571	-106.24406	17.54000	436.22513	288.52789	18.10333	406.49060	-7.88779	1208.13782	-348.07047	18.18048	576.09460	-337.90323	178.08200	576.05170	-339.72119	28.43843	582.58527	608.83185	186.05977	576.23016	607.21106	
13	0.120	-112.26746	20.10635	-202.60735	307.28055	18.18445	-203.11595	-106.20721	17.49244	436.27310	288.47379	18.03047	406.45694	-7.89503	1208.09167	-348.08340	18.19288	576.10931	-337.92859	177.98360	576.05670	-339.78543	28.48970	582.58960	608.80878	186.06444	576.22339	607.23499	
14	0.130	-112.26324	20.14867	-202.58638	307.27289	18.16928	-203.11992	-106.23839	17.59696	436.27615	288.50610	18.06771	406.52576	-8.21379	1207.95825	-348.44855	18.29128	576.09265	-337.85919	178.10654	576.08154	-339.75049	28.46061	582.60443	608.80518	186.08818	576.20483	607.22284	
15	0.140	-112.23025	20.12864	-202.58711	307.28131	18.18508	-203.10852	-106.23190	17.51885	436.24466	288.46338	17.98956	406.45468	-7.91294	1208.15918	-348.05563	18.22684	576.11725	-337.93518	178.08328	576.06158	-339.76077	28.50459	582.55847	608.80396	186.08209	576.23236	607.23395	
16	0.150	-112.23615	20.10386	-202.59595	307.31393	18.20385	-203.12164	-106.17522	17.51910	436.24127	288.49554	18.05760	406.47668	-7.92168	1208.11523	-348.08731	18.23491	576.07587	-337.87308	178.02318	576.05432	-339.78024	28.50741	582.59869	608.82245	186.11272	576.24146	607.23175	
17	0.160	-112.17879	20.12092	-202.58420	307.27737	18.19517	-203.10106	-106.22987	17.57088	436.27869	288.52707	18.08289	406.47269	-7.91341	1208.09924	-348.01099	18.29009	576.08185	-337.88757	178.00293	576.05768	-339.77377	28.46991	582.58789	608.82605	186.08548	576.22375	607.23505	
18	0.170	-112.14038	20.11091	-202.59973	307.33426	18.19013	-203.11137	-106.18533	17.52470	436.22723	288.49051	18.04359	406.45987	-8.19376	1207.96521	-348.43878	18.22050	576.14819	-337.87961	178.02344	576.06805	-339.80811	28.45657	582.59485	608.79675	186.08356	576.23169	607.22668	
19	0.180	-112.21416	20.12096	-202.58005	307.31186	18.20920	-203.08295	-106.25959	17.55015	436.24469	288.46890	18.01657	406.44443	-7.93289	1208.09985	-348.05478	18.19333	576.11035	-337.92477	177.98277	576.06104	-339.79114	28.42477	582.59009	608.81128	186.09135	576.23438	607.23535	
20	0.190	-112.19126	20.11419	-202.59361	307.32062	18.21256	-203.05933	-106.18099	17.53333	436.24854	288.50677	18.01402	406.50247	-7.88838	1208.14148	-348.08502	18.23596	576.10675	-337.89246	178.08507	576.02576	-339.73309	28.46829	582.60187	608.82910	186.08302	576.21838	607.25189	
21	0.200	-112.24772	20.13075	-202.56392	307.26755	18.18858	-203.09508	-106.23454	17.51961	436.24634	288.49973	18.01271	406.56113	-7.91731	1208.12109	-348.03842	18.34929	576.10657	-337.86377	178.04976	576.07159	-339.71835	28.46136	582.56732	608.83356	186.11592	576.21167	607.22266	
22	0.210	-112.18551	20.08916	-202.58604	307.30756	18.21159	-203.06821	-106.21661	17.52687	436.25137	288.54462	18.04170	406.44043	-8.19940	1207.94788	-348.38525	18.31295	576.13879	-337.88977	178.02948	576.04694	-339.75269	28.52903	582.56708	608.82129	186.11884	576.22552	607.25848	
23	0.220	-112.18956	20.09831	-202.57384	307.24893	18.18522	-203.10620	-106.21072	17.53583	436.27216	288.49799	18.08349	406.47922	-8.22613	1207.95923	-348.42163	18.30696	576.08392	-337.88922	178.05360	576.02545	-339.71008	28.50032	582.58551	608.83069	186.07034	576.21448	607.22400	
24	0.230	-112.20930	20.13512	-202.59328	307.28409	18.17802	-203.09714	-106.19319	17.54706	436.26630	288.45987	18.04300	406.49701	-8.21604	1207.96899	-348.37427	18.20818	576.10522	-337.91055	177.98308	576.06897	-339.77255	28.54620	582.59412	608.82715	186.09097	576.19440	607.24451	
25	0.240	-112.17179	20.10660	-202.64806	307.31546	18.20886	-203.08366	-106.21107	17.56061	436.27814	288.50092	18.05642	406.48627	-7.90771	1208.12939	-348.06305	18.38098	576.08185	-337.87183	177.99719	576.07867	-339.79865	28.51308	582.60138	608.85248	186.08044	576.20776	607.24304	
26	0.250	-112.24747	20.14051	-202.57710	307.26913	18.17992	-203.09457	-106.20492	17.53686	436.26285	288.47443	18.02802	406.48141	-8.18373	1207.99133	-348.47925	18.29850	576.12079	-337.88312	178.09169	576.09259	-339.73563	28.48420	582.57953	608.82605	186.08379	576.21021	607.24487	
27	0.260	-112.20403	20.11877	-202.59088	307.31741	18.18410	-203.11980	-106.20512	17.48627	436.22086	288.55829	18.08801	406.50452	-7.91224	1208.15454	-348.06705	18.31888	576.08978	-337.84875	178.19778	576.08777	-339.65494	28.45963	582.55920	608.83643	186.09769	576.20557	607.23138	
28	0.270	-112.16364	20.10030	-202.59230	307.34811	18.22578	-203.06273	-106.20382	17.53111	436.27435	288.52878	18.10374	406.46976	-7.89906	1208.13147	-348.03650	18.29414	576.12933	-337.87976	178.04039	576.05627	-339.78680	28.48103	582.58813	608.81580	186.08984	576.21405	607.23730	
29	0.280	-112.19116	20.11315	-202.61400	307.30402	18.18913	-203.10825	-106.23194	17.53276	436.25629	288.55167	18.03453	406.49042	-7.93223	1208.12903	-348.02487	18.33931	576.10144	-337.89560	178.17790	576.05261	-339.70605	28.49108	582.56665	608.84473	186.07106	576.23334	607.23926	
30	0.290	-112.19266	20.12607	-202.62988	307.31772	18.19900	-203.06514	-106.19995	17.52805	436.27280	288.56012	18.06246	406.51001	-7.90761	1208.12988	-348.07300	18.27523	576.10406	-337.86584	178.06757	576.06000	-339.67627	28.53144	582.58984	608.81525	186.07550	576.22015	607.23035	
31	0.300	-112.26547	20.14939	-202.59523	307.31812	18.18249	-203.07306	-106.17195	17.54210	436.25519	288.49582	18.04035	406.44736	-7.88645	1208.11963	-348.09030	18.26621	576.16211	-337.88498	178.16602	576.08160	-339.71423	28.45146	582.59503	608.83521	186.06580	576.23364	607.23230	
32	0.310	-112.26171	20.15624	-202.59731	307.31750	18.20499	-203.07675	-106.19215	17.56001	436.27853	288.55356	18.05269	406.45120	-8.18798	1207.98547	-348.40607	18.26913	576.10400	-337.87872	178.10423	576.07538	-339.69669	28.45613	582.56494	608.82196	186.08218	576.21881	607.23120	
33	0.320	-112.11853	20.10236	-202.59792	307.35718	18.23054	-203.07640	-106.17867	17.49290	436.25449	288.60693	18.11154	406.49197	-7.89809	1208.17261	-348.06006	18.34991	576.09741	-337.90314	178.02933	576.09753	-339.76218	28.52307	582.58081	608.83978	186.07327	576.22681	607.23663	
34	0.330	-112.20516	20.13372	-202.59703	307.31314	18.21350	-203.08130	-106.19019	17.52676	436.23413	288.53876	18.03655	406.44879	-8.10853	1207.95898	-348.38150	18.29199	576.15552	-337.89606	178.29211	576.09937	-339.50400	28.47549	582.57428	608.83380	186.10757	576.24011	607.23022	
35	0.340	-112.18213	20.12295	-202.60722	307.31607	18.21596	-203.07132	-106.18860	17.53563	436.26157	288.64063	18.13123	406.49078	-7.89510	1208.14868	-348.08371	18.34026	576.11566	-337.88641	178.11530	576.09155	-339.68552	28.49082	582.56586	608.82556	186.09697	576.21698	607.24066	
36	0.350	-112.21589	20.10092	-202.59288	307.31085	18.21024	-203.06464	-106.19504	17.54084	436.25272	288.51553	18.04649	406.46298	-7.93072	1208.12756	-348.03333	18.31689	576.08099	-337.84277	178.07137	576.08105	-339.70306	28.50123	582.56268	608.83588	186.08270	576.21735	607.23657	
37	0.360	-112.22079	20.12643	-202.59552	307.29675	18.16489	-203.09903	-106.22147	17.55374	436.25095	288.51608	18.03840	406.49243	-7.89882	1208.11035	-348.06158	18.35772	576.10156	-337.87622	178.17661	576.05145	-339.69705	28.45703	582.55762	608.80835	186.08807	576.21057	607.24567	
38	0.370	-112.14452	20.10481	-202.57587	307.29517	18.19650	-203.07803	-106.21212	17.53504	436.24380	288.48428	18.02790	406.49127	-7.91081	1208.12964	-348.03998	18.37812	576.11322	-337.88605	178.11179	576.04431	-339.67755	28.49674	582.56525	608.83545	186.09801	576.20209	607.25964	
39	0.380	-112.25647	20.11849	-202.60316	307.32199	18.20733	-203.07495	-106.19674	17.50346	436.26385	288.47372	18.00065	406.51563	-7.89342	1208.12317	-348.10257	18.29441	576.13184	-337.87631	178.05963	576.08856	-339.72714	28.43692	582.56519	608.86298	186.07713	576.20819	607.24579	
40	0.390	-112.26431	20.14057	-202.59386	307.29602	18.16129	-203.08252	-106.24251	17.49907	436.21912	288.48163	18.05738	406.48257	-8.18937	1208.01160	-348.40265	18.35856	576.08698	-337.86700	178.21017	576.04346	-339.60556	28.47445	582.59088	608.87524	186.10124	576.18909	607.24500	
41	0.400	-112.24319	20.10730	-202.60056	307.29953	18.21437	-203.05855	-106.23382	17.51694	436.24731	288.45337	18.02432	406.51389	-8.16864	1207.98669	-348.41177	18.38305	576.08893	-337.87885	178.02513	576.08569	-339.73514	28.46281	582.59351	608.84033	186.07930	576.17999	607.25977	
42	0.410	-112.20331	20.09693	-202.60121	307.28036	18.14854	-203.10530	-106.23516	17.52675	436.27444	288.52942	18.02113	406.49573	-7.89367	1208.15271	-348.05078	18.37969	576.11304	-337.88052	178.07524	576.11670	-339.72037	28.48919	582.57281	608.86731	186.06241	576.17267	607.23315	
